<svg width="442" height="204" viewBox="0 0 442 204" fill="none" xmlns="http://www.w3.org/2000/svg">
<path d="M121.758 48.1541V69.1127C121.758 75.2513 126.599 80.2353 132.695 80.9572C145.496 82.4733 155.5 85.6166 163.46 90.5496C168.322 93.5178 172.57 97.3864 175.977 101.947V59.6366C175.977 53.295 170.836 48.1541 164.494 48.1541H121.758Z" fill="#088395"/>
<path d="M158.263 98.8916C149.71 93.5865 137.972 90.6749 121.76 89.9082C118.813 89.77 115.699 89.701 112.419 89.701H81.7016C75.3599 89.701 70.219 84.56 70.219 78.2184V23.7456C70.219 19.4678 66.7512 16 62.4734 16C36.8069 16 16 36.8069 16 62.4734V180.254C16 184.532 19.4678 188 23.7456 188H43.1342C58.0927 188 70.219 175.874 70.219 160.915V159.601C70.219 145.368 82.6936 133.83 96.9264 133.83C111.159 133.83 121.76 145.368 121.76 159.601V179.697C121.76 184.283 125.478 188 130.063 188C142.244 187.986 153.922 183.149 162.534 174.549C171.146 165.95 175.989 154.29 176 142.13V136.265C175.979 118.516 170.188 106.29 158.263 98.8916Z" fill="#FFB000"/>
<path d="M175.834 16H133.346C127.005 16 121.864 21.1409 121.864 27.4826V38.9333H164.351C170.693 38.9333 175.834 33.7924 175.834 27.4507V16Z" fill="#088395"/>
<path d="M279.533 115.062C278.581 117.4 277.451 119.971 276.142 122.777C274.833 125.465 273.227 128.037 271.323 130.491C269.539 132.829 267.456 134.875 265.077 136.628C245.027 152.178 240.499 120.379 239.27 112.662C239.098 111.585 238.471 111.424 237.652 112.144C229.145 119.617 220.857 127.301 211.975 134.349C208.849 136.829 199.548 141.883 200.017 133.121C200.919 116.289 201.445 106.471 201.802 88.2365C201.564 81.6908 201.445 75.2035 201.445 68.7747C201.564 62.3459 201.921 55.9171 202.516 49.4883C204.001 36.1124 217.057 22.7423 228.038 16C225.182 23.3639 223.159 30.9616 221.97 38.7931C218.82 61.4831 220.156 81.2645 218.936 103.849C218.896 104.58 219.819 104.937 220.278 104.367C225.74 97.588 231.033 91.1259 238.389 86.3078C241.192 84.4721 244.135 84.6448 246.956 86.3078C259.503 93.7031 240.179 135.304 272.751 120.147C275.131 118.978 277.392 117.283 279.533 115.062Z" fill="black"/>
<path d="M302.84 78.5933C302.84 78.5933 301.485 121.236 300.341 139.294C295.413 139.715 286.29 146.272 284.457 146.037C286.143 126.163 286.425 106.055 287.281 86.1325C291.446 83.4441 298.318 80.931 302.84 78.5933Z" fill="black"/>
<path d="M330.599 80.1712C330.599 146.037 339.069 188 289.372 188C276.142 188 267.659 170.095 273.844 154.862C281.635 177.822 313.644 181.371 313.644 143.466C313.644 128.212 312.216 91.3701 312.216 91.3701L330.599 80.1712Z" fill="black"/>
<path d="M425.513 115.062C425.037 117.867 423.966 120.673 422.301 123.478C420.754 126.166 418.791 128.621 416.411 130.842C414.031 133.063 411.414 134.933 408.558 136.453C402.182 139.845 393.582 140.481 388.117 134.699C384.955 131.593 384.106 126.388 382.826 122.148C382.655 121.58 381.924 121.453 381.543 121.907C377.533 126.683 372.645 130.597 366.879 133.647C360.691 136.803 354.207 138.44 347.425 138.557C328.845 138.557 338.958 108.64 345.997 100.86C348.972 97.5875 352.363 94.7237 356.17 92.2691C359.978 89.8145 364.023 87.7689 368.306 86.1325C370.747 85.1335 373.13 84.2294 375.454 83.4201C378.383 82.4007 381.535 83.8951 382.941 86.6585C384.586 89.4867 388.252 90.1178 391.123 88.5493C392.203 87.9593 393.284 87.3875 394.364 86.8338C396.628 85.5763 403.109 82.0999 403.109 82.0999C401.8 84.4376 400.551 87.3598 399.361 90.8665C398.171 94.2562 397.338 97.7628 396.862 101.386C396.505 105.01 396.684 108.458 397.398 111.731C399.722 122.004 410.845 123.649 419.267 119.971C421.408 118.919 423.49 117.283 425.513 115.062ZM382.406 95.9511C376.788 97.5607 370.481 100.037 364.915 103.841C354.697 110.388 350.759 126.992 364.558 116.289C369.453 112.443 373.221 107.742 376.695 102.964C378.479 100.393 380.383 98.055 382.406 95.9511Z" fill="black"/>
<path d="M282.694 57.3431L293.323 46.0672L305.244 53.5843L293.323 67.3281L282.694 57.3431Z" fill="black"/>
<path d="M312.76 64.8595L321.053 53.584L330.346 64.2145L321.053 74.8449L312.76 64.8595Z" fill="black"/>
</svg>
