<svg width="326" height="60" viewBox="0 0 326 60" fill="none" xmlns="http://www.w3.org/2000/svg">
<g clip-path="url(#clip0_18_489)">
<path fill-rule="evenodd" clip-rule="evenodd" d="M54.0999 7.30876L62.3993 21.6533L77.666 48.0882C78.4857 49.5227 78.4857 51.2645 77.666 52.699C76.8463 54.1334 75.4118 54.9531 73.67 54.9531H48.567C46.9277 54.9531 45.3908 54.1334 44.5711 52.699C43.7514 51.2645 43.7514 49.6251 44.5711 48.1907V48.0882L53.7926 32.1043L56.4565 33.6412C56.9688 33.9486 57.5836 33.9486 58.0959 33.6412C58.6082 33.3339 58.9156 32.8215 58.9156 32.2068V24.5222V16.8376C58.9156 16.2229 58.6082 15.7106 58.0959 15.4032C57.5836 15.0958 56.9688 15.0958 56.4565 15.4032L49.7966 19.1942L43.1366 22.9853C42.6243 23.2927 42.3169 23.805 42.3169 24.4198C42.3169 25.0345 42.6243 25.5468 43.1366 25.8542L45.8006 27.3911L31.2511 52.5965V52.699C30.4315 54.1334 28.997 54.9531 27.3576 54.9531H4.95243C3.31305 54.9531 1.77614 54.1334 0.956457 52.699C0.136769 51.2645 0.136769 49.5227 0.956457 48.0882L24.5225 7.30876C25.3422 5.87431 26.7766 5.05462 28.5184 5.05462H50.104C51.7433 4.95216 53.1778 5.87431 54.0999 7.30876Z" fill="url(#paint0_linear_18_489)"/>
<path fill-rule="evenodd" clip-rule="evenodd" d="M46.005 7.30883C32.3777 30.8748 32.2752 31.1822 22.5414 48.0883C21.7217 49.5228 21.7217 51.2646 22.5414 52.699C23.3611 54.1335 24.7955 54.9532 26.4349 54.9532H4.61074C2.97137 54.9532 1.43445 54.1335 0.614766 52.699C-0.204922 51.2646 -0.204922 49.5228 0.614766 48.0883L15.8815 21.6534L24.1808 7.30883C25.0005 5.87437 26.4349 5.05469 28.1768 5.05469H50.0009C48.2591 5.05469 46.8246 5.87437 46.005 7.30883Z" fill="url(#paint1_linear_18_489)"/>
<path fill-rule="evenodd" clip-rule="evenodd" d="M71.3124 37.125L70.0829 34.9733C69.2632 33.4364 67.7263 32.6167 65.9844 32.6167C64.2426 32.6167 62.8082 33.4364 61.886 34.9733L51.7424 52.5966V52.6991C50.9227 54.031 49.6932 54.8507 48.1562 54.9532C48.2587 54.9532 48.3612 54.9532 48.4636 54.9532H69.0583H73.669C75.3084 54.9532 76.8453 54.1335 77.665 52.6991C78.4847 51.2646 78.4847 49.5228 77.665 48.0883L71.3124 37.125Z" fill="url(#paint2_linear_18_489)"/>
<path fill-rule="evenodd" clip-rule="evenodd" d="M14.14 54.9532C12.5007 54.9532 11.0662 54.1335 10.1441 52.699C9.32437 51.2646 9.32437 49.5228 10.1441 48.0883L25.4107 21.6534L33.7101 7.30883C34.5298 5.87437 35.9642 5.05469 37.6036 5.05469H49.8989C48.2595 5.05469 46.8251 5.87437 46.0054 7.30883C32.3781 30.9773 32.2756 31.1822 22.5418 48.0883C21.7222 49.5228 21.7222 51.2646 22.5418 52.699C23.3615 54.1335 24.796 54.9532 26.4354 54.9532H14.14Z" fill="url(#paint3_linear_18_489)"/>
<path fill-rule="evenodd" clip-rule="evenodd" d="M70.8016 36.3052L61.3752 52.5965V52.6989C60.5555 54.0309 59.326 54.8506 57.7891 54.9531C57.8915 54.9531 57.994 54.9531 58.0964 54.9531H68.9573H73.6705C75.3099 54.9531 76.7443 54.1334 77.564 52.6989C78.3837 51.2645 78.3837 49.5227 77.564 48.0882L71.3139 37.2273L70.8016 36.3052Z" fill="url(#paint4_linear_18_489)"/>
<path d="M82.127 40.4957L99.6935 13.2851H105.951L112.636 40.4957H106.339L101.054 16.3948H103.541L88.8503 40.4957H82.127ZM89.3942 34.6649L91.9597 29.8834H105.99L106.728 34.6649H89.3942ZM121.147 36.2974L122.468 28.7951L133.7 19.5821H141.589L129.891 29.3393L126.51 31.8271L121.147 36.2974ZM115.084 40.4957L120.836 11.6523H126.899L121.147 40.4957H115.084ZM130.824 40.4957L125.461 31.7105L129.697 27.0847L137.859 40.4957H130.824ZM147.069 40.8066C145.23 40.8066 143.5 40.5992 141.881 40.1848C140.262 39.77 139.011 39.2517 138.131 38.6299L140.462 34.237C141.369 34.8333 142.477 35.3126 143.785 35.6755C145.094 36.0382 146.409 36.2197 147.73 36.2197C149.155 36.2197 150.191 36.0382 150.839 35.6755C151.487 35.3126 151.811 34.8202 151.811 34.1984C151.811 33.706 151.539 33.3366 150.995 33.0906C150.451 32.8442 149.764 32.6432 148.935 32.4879C148.106 32.3323 147.218 32.1511 146.273 31.9438C145.327 31.7364 144.433 31.4447 143.591 31.0689C142.749 30.6931 142.062 30.149 141.531 29.4364C141 28.7239 140.734 27.7842 140.734 26.6182C140.734 25.0372 141.181 23.7028 142.075 22.6142C142.969 21.5258 144.213 20.6966 145.806 20.1263C147.4 19.5562 149.207 19.2712 151.228 19.2712C152.679 19.2712 154.091 19.4265 155.464 19.7377C156.837 20.0486 158.003 20.4762 158.962 21.0203L156.785 25.4519C155.801 24.8301 154.771 24.4089 153.696 24.1885C152.621 23.9683 151.591 23.8581 150.606 23.8581C149.181 23.8581 148.151 24.0591 147.516 24.4607C146.882 24.8624 146.564 25.3484 146.564 25.9184C146.564 26.4108 146.83 26.793 147.361 27.0652C147.892 27.3371 148.572 27.5576 149.401 27.726C150.23 27.8944 151.124 28.0759 152.083 28.2701C153.042 28.4644 153.935 28.7497 154.765 29.1255C155.593 29.5013 156.274 30.0324 156.805 30.7193C157.336 31.406 157.602 32.3323 157.602 33.4986C157.602 35.0793 157.142 36.4204 156.222 37.5218C155.302 38.6232 154.052 39.446 152.472 39.9902C150.891 40.5346 149.09 40.8066 147.069 40.8066ZM171.204 40.8066C169.027 40.8066 167.143 40.418 165.549 39.6406C163.955 38.8629 162.719 37.7746 161.838 36.375C160.957 34.9758 160.516 33.3302 160.516 31.4383C160.516 29.106 161.041 27.0262 162.09 25.1992C163.139 23.3724 164.59 21.9275 166.443 20.865C168.295 19.8023 170.427 19.2712 172.836 19.2712C174.883 19.2712 176.645 19.6534 178.122 20.418C179.599 21.1823 180.745 22.2451 181.561 23.6053C182.377 24.9659 182.786 26.5923 182.786 28.4839C182.786 29.0281 182.753 29.5725 182.688 30.1167C182.624 30.6609 182.539 31.1791 182.436 31.6715H165.141L165.763 28.134H179.599L177.111 29.2227C177.319 28.0564 177.254 27.078 176.917 26.2878C176.58 25.4973 176.036 24.8882 175.285 24.4607C174.533 24.0332 173.627 23.8194 172.564 23.8194C171.243 23.8194 170.122 24.1367 169.203 24.7716C168.283 25.4065 167.59 26.2811 167.123 27.3956C166.657 28.5098 166.424 29.7668 166.424 31.1663C166.424 32.773 166.87 33.9715 167.765 34.762C168.658 35.5522 170.012 35.9475 171.826 35.9475C172.888 35.9475 173.911 35.7791 174.896 35.4423C175.881 35.1052 176.723 34.6259 177.422 34.0038L179.949 38.0078C178.731 38.9667 177.364 39.6729 175.848 40.1263C174.332 40.58 172.784 40.8066 171.204 40.8066ZM192.113 40.8066C190.273 40.8066 188.544 40.5992 186.924 40.1848C185.305 39.77 184.055 39.2517 183.174 38.6299L185.506 34.237C186.413 34.8333 187.52 35.3126 188.829 35.6755C190.137 36.0382 191.452 36.2197 192.773 36.2197C194.199 36.2197 195.235 36.0382 195.883 35.6755C196.53 35.3126 196.854 34.8202 196.854 34.1984C196.854 33.706 196.582 33.3366 196.038 33.0906C195.494 32.8442 194.807 32.6432 193.978 32.4879C193.149 32.3323 192.262 32.1511 191.316 31.9438C190.371 31.7364 189.477 31.4447 188.635 31.0689C187.792 30.6931 187.106 30.149 186.575 29.4364C186.043 28.7239 185.778 27.7842 185.778 26.6182C185.778 25.0372 186.225 23.7028 187.119 22.6142C188.012 21.5258 189.256 20.6966 190.85 20.1263C192.443 19.5562 194.25 19.2712 196.271 19.2712C197.722 19.2712 199.134 19.4265 200.508 19.7377C201.881 20.0486 203.047 20.4762 204.005 21.0203L201.829 25.4519C200.844 24.8301 199.814 24.4089 198.739 24.1885C197.664 23.9683 196.634 23.8581 195.65 23.8581C194.225 23.8581 193.195 24.0591 192.56 24.4607C191.925 24.8624 191.608 25.3484 191.608 25.9184C191.608 26.4108 191.873 26.793 192.404 27.0652C192.935 27.3371 193.615 27.5576 194.445 27.726C195.274 27.8944 196.168 28.0759 197.127 28.2701C198.085 28.4644 198.979 28.7497 199.808 29.1255C200.637 29.5013 201.317 30.0324 201.848 30.7193C202.38 31.406 202.645 32.3323 202.645 33.4986C202.645 35.0793 202.185 36.4204 201.265 37.5218C200.346 38.6232 199.096 39.446 197.515 39.9902C195.935 40.5346 194.134 40.8066 192.113 40.8066Z" fill="#0F2167"/>
<path d="M205.133 40.4957L210.885 11.6523H216.948L214.499 23.8197L212.867 29.9227L211.934 35.287L210.885 40.496H205.133V40.4957ZM218.502 40.8066C216.896 40.8066 215.491 40.5215 214.286 39.9515C213.081 39.3815 212.148 38.5066 211.487 37.3275C210.827 36.1485 210.496 34.6649 210.496 32.8765C210.496 30.9849 210.729 29.2096 211.196 27.5512C211.662 25.8925 212.349 24.4476 213.256 23.2168C214.163 21.9856 215.27 21.0203 216.579 20.3209C217.887 19.6211 219.37 19.2712 221.029 19.2712C222.661 19.2712 224.164 19.6406 225.537 20.379C226.91 21.1175 228.011 22.1802 228.84 23.5667C229.67 24.9531 230.084 26.6441 230.084 28.6395C230.084 30.3758 229.786 31.9891 229.19 33.4791C228.594 34.9694 227.772 36.2584 226.722 37.347C225.673 38.4353 224.448 39.284 223.05 39.893C221.65 40.5021 220.135 40.8066 218.502 40.8066ZM217.803 35.7922C219.02 35.7922 220.083 35.5005 220.99 34.9173C221.897 34.3345 222.616 33.5309 223.147 32.5074C223.678 31.4837 223.944 30.2851 223.944 28.9117C223.944 27.4863 223.529 26.359 222.7 25.5295C221.871 24.7004 220.692 24.2856 219.163 24.2856C217.997 24.2856 216.948 24.5773 216.015 25.1605C215.082 25.7436 214.357 26.5469 213.839 27.5704C213.32 28.5941 213.061 29.7927 213.061 31.1663C213.061 32.5915 213.476 33.7188 214.305 34.5483C215.134 35.3774 216.3 35.7922 217.803 35.7922ZM241.393 40.8066C239.787 40.8066 238.297 40.4375 236.924 39.6988C235.551 38.9603 234.45 37.8912 233.621 36.4917C232.791 35.0924 232.377 33.4079 232.377 31.4383C232.377 29.6761 232.669 28.0564 233.251 26.5792C233.834 25.102 234.657 23.8194 235.719 22.7308C236.782 21.6425 238.012 20.7938 239.411 20.1848C240.811 19.5757 242.313 19.2712 243.92 19.2712C245.655 19.2712 247.145 19.5952 248.389 20.2429C249.633 20.8909 250.559 21.8952 251.168 23.2558C251.777 24.6163 251.991 26.3718 251.809 28.5229C251.68 30.9849 251.174 33.1423 250.293 34.9953C249.413 36.8482 248.227 38.28 246.738 39.2907C245.248 40.3014 243.466 40.8066 241.393 40.8066ZM243.259 35.7922C244.451 35.7922 245.507 35.5005 246.426 34.9173C247.346 34.3345 248.072 33.5309 248.603 32.5074C249.134 31.4837 249.4 30.2851 249.4 28.9117C249.4 27.4863 248.979 26.359 248.137 25.5295C247.294 24.7004 246.122 24.2856 244.619 24.2856C243.453 24.2856 242.404 24.5773 241.471 25.1605C240.538 25.7436 239.806 26.5469 239.276 27.5704C238.744 28.5941 238.479 29.7927 238.479 31.1663C238.479 32.5915 238.9 33.7188 239.742 34.5483C240.584 35.3774 241.756 35.7922 243.259 35.7922ZM247.418 40.4957L248.233 36.3363L249.594 30.1167L250.41 23.8971L251.265 19.5821H257.328L253.17 40.4954H247.418V40.4957ZM260.204 48.3481C259.142 48.3481 258.086 48.1794 257.037 47.8426C255.987 47.5058 255.152 47.0652 254.53 46.521L257.328 42.1671C257.769 42.556 258.267 42.8669 258.824 43.1002C259.382 43.3334 259.997 43.45 260.671 43.45C261.448 43.45 262.128 43.2558 262.711 42.8669C263.294 42.478 263.87 41.8172 264.44 40.8845L266.111 38.2411L266.656 37.619L277.693 19.5821H283.678L269.765 41.8949C268.728 43.5274 267.738 44.8167 266.791 45.7625C265.846 46.7086 264.849 47.3758 263.799 47.7647C262.75 48.1532 261.551 48.3478 260.204 48.3478V48.3481ZM264.829 41.3121L259.815 19.5824H265.879L269.687 37.0751L264.829 41.3123V41.3121ZM290.868 40.8066C289.261 40.8066 287.772 40.4375 286.398 39.6988C285.025 38.9603 283.924 37.8912 283.095 36.4917C282.266 35.0924 281.852 33.4079 281.852 31.4383C281.852 29.6761 282.143 28.0564 282.726 26.5792C283.309 25.102 284.131 23.8194 285.194 22.7308C286.256 21.6425 287.487 20.7938 288.886 20.1848C290.285 19.5757 291.788 19.2712 293.394 19.2712C295.13 19.2712 296.62 19.5952 297.863 20.2429C299.107 20.8909 300.033 21.8952 300.642 23.2558C301.251 24.6163 301.465 26.3718 301.284 28.5229C301.154 30.9849 300.649 33.1423 299.768 34.9953C298.887 36.8482 297.701 38.28 296.212 39.2907C294.722 40.3014 292.941 40.8066 290.868 40.8066ZM292.733 35.7922C293.925 35.7922 294.981 35.5005 295.901 34.9173C296.821 34.3345 297.546 33.5309 298.077 32.5074C298.609 31.4837 298.874 30.2851 298.874 28.9117C298.874 27.4863 298.453 26.359 297.611 25.5295C296.769 24.7004 295.596 24.2856 294.094 24.2856C292.928 24.2856 291.878 24.5773 290.946 25.1605C290.013 25.7436 289.281 26.5469 288.75 27.5704C288.219 28.5941 287.953 29.7927 287.953 31.1663C287.953 32.5915 288.374 33.7188 289.216 34.5483C290.058 35.3774 291.231 35.7922 292.733 35.7922ZM296.892 40.4957L297.708 36.3363L299.068 30.1167L299.885 23.8971L300.739 19.5821H306.803L302.644 40.4954H296.892V40.4957ZM308.24 40.4957L312.399 19.5824H318.151L316.946 25.5298L316.402 23.8197C317.335 22.1351 318.553 20.9561 320.055 20.2822C321.558 19.6083 323.359 19.2715 325.458 19.2715L324.369 24.869C324.11 24.8432 323.871 24.8237 323.65 24.8109C323.43 24.7978 323.203 24.7914 322.97 24.7914C321.183 24.7914 319.725 25.232 318.598 26.113C317.471 26.9942 316.713 28.4196 316.324 30.3889L314.304 40.496H308.24V40.4957Z" fill="#4CB9E7"/>
</g>
<defs>
<linearGradient id="paint0_linear_18_489" x1="12.7413" y1="35.4082" x2="69.6094" y2="27.2617" gradientUnits="userSpaceOnUse">
<stop stop-color="#27284B"/>
<stop offset="1" stop-color="#37BBE7"/>
</linearGradient>
<linearGradient id="paint1_linear_18_489" x1="35.3601" y1="13.5643" x2="15.3765" y2="48.1771" gradientUnits="userSpaceOnUse">
<stop stop-color="#ACE0F4"/>
<stop offset="1" stop-color="#37BBE7"/>
</linearGradient>
<linearGradient id="paint2_linear_18_489" x1="71.0383" y1="39.5417" x2="61.5174" y2="56.0324" gradientUnits="userSpaceOnUse">
<stop stop-color="#ACE0F4"/>
<stop offset="1" stop-color="#37BBE7"/>
</linearGradient>
<linearGradient id="paint3_linear_18_489" x1="83.0002" y1="29.9528" x2="67.207" y2="29.9528" gradientUnits="userSpaceOnUse">
<stop stop-color="#ACE0F4"/>
<stop offset="1" stop-color="#37BBE7"/>
</linearGradient>
<linearGradient id="paint4_linear_18_489" x1="83.0014" y1="45.6028" x2="67.2087" y2="45.6028" gradientUnits="userSpaceOnUse">
<stop stop-color="#ACE0F4"/>
<stop offset="1" stop-color="#37BBE7"/>
</linearGradient>
<clipPath id="clip0_18_489">
<rect width="325.458" height="49.9063" fill="white" transform="translate(0 5.04688)"/>
</clipPath>
</defs>
</svg>
