<svg width="593" height="300" viewBox="0 0 593 300" fill="none" xmlns="http://www.w3.org/2000/svg">
<path d="M45.8307 212.254C44.3035 212.359 42.7722 212.128 41.3394 211.575C39.9066 211.022 38.6054 210.161 37.5232 209.049C36.4409 207.937 35.6026 206.6 35.0644 205.128C34.5263 203.657 34.3007 202.083 34.4028 200.515V97.3469C34.3318 95.781 34.5714 94.2166 35.1072 92.7489C35.643 91.2811 36.4638 89.9406 37.5195 88.8088C39.7772 86.6686 42.7598 85.5196 45.8307 85.6071C47.3549 85.5341 48.8777 85.7803 50.3065 86.3307C51.7352 86.8811 53.0401 87.7242 54.1418 88.8088C55.2551 89.9056 56.1252 91.236 56.6929 92.7094C57.2606 94.1827 57.5126 95.7645 57.4316 97.3469V99.8371C62.3808 94.904 68.2783 91.0871 74.7465 88.6309C81.5494 85.7335 88.853 84.2813 96.217 84.3619C105.876 84.2085 115.414 86.5966 123.921 91.2991C132.065 95.8949 138.74 102.814 143.14 111.221C148.249 121.185 150.755 132.339 150.413 143.594V200.515C150.428 202.105 150.129 203.681 149.534 205.149C148.939 206.616 148.06 207.945 146.95 209.053C145.906 210.119 144.661 210.953 143.291 211.504C141.921 212.054 140.455 212.31 138.985 212.254C135.863 212.333 132.83 211.188 130.5 209.053C128.417 206.733 127.299 203.669 127.384 200.515V143.594C127.832 138.328 127.133 133.025 125.335 128.071C123.538 123.117 120.689 118.637 116.995 114.957C109.929 108.464 100.665 105.079 91.1957 105.529C85.1995 105.361 79.2545 106.704 73.8808 109.442C69.0028 111.852 64.8241 115.531 61.7604 120.115C58.6786 124.44 57.0939 129.699 57.2585 135.056V200.337C57.3349 201.914 57.0858 203.491 56.5275 204.963C55.9692 206.435 55.1142 207.769 54.0188 208.877C52.9233 209.986 51.6121 210.844 50.1711 211.395C48.7302 211.947 47.192 212.179 45.6575 212.077L45.8307 212.254ZM239.238 213.144C228.868 213.55 218.607 209.97 209.695 204.508C200.783 199.047 193.603 191.049 189.025 181.482C183.892 171.202 181.333 159.77 181.579 148.219C181.341 136.627 184.025 125.168 189.371 114.957C194.544 105.436 202.226 97.606 211.534 92.3664C221.368 86.8864 232.379 84.0161 243.567 84.0161C254.754 84.0161 265.765 86.8864 275.599 92.3664C284.85 97.5639 292.43 105.413 297.416 114.957C302.958 125.104 305.767 136.586 305.554 148.219V198.202C305.686 209.726 303.008 221.1 297.762 231.287C292.741 241.705 284.957 250.455 275.308 256.528C265.659 262.602 254.536 265.752 243.22 265.617C232.906 265.694 222.694 263.511 213.266 259.214C204.041 254.906 195.963 248.377 189.717 240.181C188.77 239.113 188.075 237.836 187.684 236.448C187.294 235.06 187.22 233.599 187.466 232.176C187.718 230.79 188.248 229.473 189.023 228.309C189.799 227.145 190.802 226.16 191.968 225.417C193.14 224.506 194.487 223.86 195.919 223.523C197.352 223.185 198.838 223.164 200.279 223.461C203.101 224.097 205.615 225.735 207.379 228.085C211.461 233.409 216.752 237.624 222.789 240.359C229.35 243.466 236.517 244.988 243.74 244.806C250.663 244.852 257.475 243.011 263.479 239.469C269.724 235.84 274.785 230.394 278.023 223.816C281.889 215.938 283.792 207.199 283.564 198.38V186.996C279.075 195.1 272.712 201.942 265.037 206.918C257.167 211.415 248.27 212.79 239.238 213.144ZM243.74 192.332C250.973 192.495 258.108 189.697 264.345 185.929C270.348 182.314 275.216 177.004 278.37 170.632C281.78 163.68 283.556 156.004 283.556 148.219C283.556 140.435 281.78 132.759 278.37 125.807C275.219 119.386 270.354 114.018 264.345 110.332C258.015 106.718 250.894 104.822 243.653 104.822C236.412 104.822 229.291 106.718 222.962 110.332C216.941 114.059 212.03 119.412 208.764 125.807C205.354 132.759 203.578 140.435 203.578 148.219C203.578 156.004 205.354 163.68 208.764 170.632C212.034 176.977 216.947 182.271 222.962 185.929C229.162 190.032 236.365 192.252 243.74 192.332ZM353.516 212.254C350.445 212.342 347.463 211.193 345.205 209.053C344.118 207.936 343.265 206.602 342.7 205.134C342.134 203.665 341.867 202.093 341.915 200.515V97.5247C341.834 95.9423 342.086 94.3606 342.654 92.8872C343.222 91.4139 344.092 90.0835 345.205 88.9867C347.463 86.8465 350.445 85.6975 353.516 85.785C355.043 85.68 356.575 85.9117 358.007 86.4646C359.44 87.0175 360.741 87.8787 361.824 88.9905C362.906 90.1023 363.744 91.439 364.282 92.9109C364.821 94.3828 365.046 95.9559 364.944 97.5247V200.515C365.029 203.669 363.911 206.733 361.827 209.053C360.726 210.137 359.421 210.98 357.992 211.531C356.563 212.081 355.04 212.327 353.516 212.254ZM353.516 65.1514C351.548 65.2001 349.59 64.8378 347.762 64.0863C345.934 63.3348 344.273 62.2098 342.881 60.7795C341.489 59.3491 340.394 57.6433 339.662 55.7653C338.931 53.8873 338.578 51.8763 338.625 49.8541C338.582 47.8897 338.946 45.9383 339.692 44.1291C340.439 42.3199 341.55 40.6941 342.954 39.3595C344.258 37.7929 345.878 36.5362 347.702 35.6763C349.526 34.8163 351.51 34.3737 353.516 34.379C357.365 34.553 361.011 36.2018 363.735 39.0004C366.459 41.799 368.064 45.5444 368.234 49.4984C368.274 51.5575 367.894 53.6024 367.118 55.5017C366.343 57.401 365.19 59.1127 363.732 60.5266C362.428 61.9749 360.849 63.1327 359.091 63.9282C357.334 64.7238 355.436 65.1401 353.516 65.1514ZM452.384 213.144C442.438 213.227 432.548 211.604 423.122 208.341C415.416 205.692 408.378 201.317 402.517 195.534C401.444 194.497 400.619 193.218 400.109 191.799C399.598 190.379 399.415 188.857 399.574 187.352C399.737 185.768 400.223 184.238 400.998 182.859C401.774 181.48 402.822 180.284 404.076 179.347C406.426 177.321 409.446 176.302 412.508 176.501C415.57 176.699 418.441 178.101 420.525 180.415C423.957 183.99 428.088 186.779 432.645 188.597C438.624 191.147 445.046 192.418 451.518 192.332C458.407 192.755 465.281 191.281 471.431 188.063C473.492 186.92 475.214 185.226 476.415 183.159C477.615 181.092 478.249 178.73 478.249 176.324C478.249 173.917 477.615 171.555 476.415 169.488C475.214 167.422 473.492 165.727 471.431 164.584C464.056 160.12 455.861 157.273 447.363 156.224C435.37 154.563 423.988 149.787 414.291 142.349C411.084 139.591 408.517 136.131 406.78 132.223C405.042 128.314 404.177 124.056 404.249 119.759C404.299 116.137 405.043 112.56 406.44 109.233C407.836 105.906 409.857 102.895 412.387 100.371C417.035 94.9801 423.019 90.9845 429.702 88.8088C436.748 86.1747 444.194 84.8496 451.692 84.8956C460.685 84.7256 469.624 86.3569 478.01 89.6982C485.146 92.4436 491.469 97.0395 496.364 103.039C498.276 105.241 499.325 108.093 499.308 111.043C499.17 112.378 498.74 113.663 498.051 114.803C497.361 115.943 496.429 116.907 495.325 117.625C494.116 118.522 492.726 119.132 491.259 119.409C489.791 119.686 488.282 119.623 486.841 119.226C483.732 118.754 480.835 117.328 478.53 115.134C475.117 111.659 470.969 109.041 466.409 107.486C461.238 105.948 455.858 105.288 450.48 105.529C444.519 105.338 438.595 106.555 433.165 109.087C431.174 109.878 429.462 111.27 428.257 113.08C427.051 114.89 426.408 117.032 426.412 119.226C426.384 121.926 427.105 124.579 428.49 126.874C430.806 129.559 433.715 131.633 436.974 132.922C443.016 135.069 449.21 136.734 455.501 137.902C468.079 139.601 480.012 144.627 490.131 152.488C493.287 155.357 495.803 158.893 497.507 162.853C499.21 166.813 500.061 171.105 500 175.434C500.3 182.137 498.609 188.774 495.152 194.467C491.19 200.539 485.595 205.298 479.049 208.163C470.614 211.779 461.518 213.478 452.384 213.144ZM543.634 212.254C542.107 212.359 540.575 212.128 539.142 211.575C537.71 211.022 536.408 210.161 535.326 209.049C534.244 207.937 533.406 206.6 532.867 205.128C532.329 203.657 532.104 202.083 532.206 200.515V97.5247C532.135 95.9589 532.374 94.3945 532.91 92.9268C533.446 91.459 534.267 90.1185 535.322 88.9867C537.58 86.8465 540.563 85.6975 543.634 85.785C545.161 85.68 546.692 85.9117 548.125 86.4646C549.558 87.0175 550.859 87.8787 551.941 88.9905C553.023 90.1023 553.862 91.439 554.4 92.9109C554.938 94.3828 555.164 95.9559 555.062 97.5247V200.515C555.147 203.669 554.028 206.733 551.945 209.053C550.843 210.137 549.538 210.98 548.109 211.531C546.681 212.081 545.158 212.327 543.634 212.254ZM543.634 65.1514C541.665 65.2001 539.708 64.8378 537.879 64.0863C536.051 63.3348 534.391 62.2098 532.999 60.7795C531.606 59.3491 530.511 57.6433 529.78 55.7653C529.048 53.8873 528.695 51.8763 528.743 49.8541C528.7 47.8897 529.063 45.9383 529.81 44.1291C530.556 42.3199 531.668 40.6941 533.072 39.3595C535.163 37.3074 537.785 35.9173 540.625 35.3551C543.465 34.7929 546.403 35.0824 549.087 36.1891C551.771 37.2957 554.088 39.1728 555.762 41.596C557.435 44.0192 558.394 46.886 558.524 49.8541C558.524 51.9072 558.125 53.9397 557.352 55.833C556.58 57.7264 555.448 59.4429 554.023 60.8824C551.242 63.655 547.509 65.1889 543.634 65.1514Z" fill="#0EA8DF"/>
</svg>
