<svg width="851" height="332" viewBox="0 0 851 332" fill="none" xmlns="http://www.w3.org/2000/svg">
<path d="M799.773 97.9669H834.135V127.115H799.773V97.9669Z" fill="#35BAEC"/>
<path d="M219.317 202.022C238.828 202.022 250.498 183.765 251.633 165.668C252.768 147.571 243.712 129.447 221.958 129.474H191.807L191.622 202.075L219.317 202.022ZM157.116 288.728V93.9984H226.815C239.805 93.9984 252.531 97.8041 261.137 105.362C278.985 120.958 285.743 142.994 285.11 164.364C284.476 185.735 276.477 206.386 264.939 219.081C253.402 231.775 238.881 237.976 220.347 238.056L191.57 237.79V288.595L157.116 288.728ZM298.839 129.501C298.839 118.163 298.839 105.282 298.839 93.9452H374.611C400.775 93.9452 416.246 107.917 416.061 134.451L415.797 237.79L333.952 238.11C311.986 238.11 292.502 222.913 292.502 195.156C292.502 167.398 312.541 152.069 334.137 152.015H380.709C380.709 140.998 383.112 129.527 369.093 129.527L298.839 129.501ZM380.841 187.464H334.084C321.438 187.464 321.517 201.995 334.084 201.995H380.841V187.464ZM78.2282 151.297C97.7389 151.297 109.408 133.067 110.544 114.97C111.679 96.8727 102.623 78.749 80.8419 78.749H50.5067V151.403L78.2282 151.297ZM106.715 181.13L144.047 237.63H104.075L70.6246 187.065H50.5067V237.87L16 238.083V43.2734H85.7262C98.6893 43.2734 111.415 47.0791 120.048 54.6373C137.922 70.2327 144.681 92.2686 144.021 113.639C143.361 135.01 135.414 155.661 123.876 168.383C119.048 173.733 113.215 178.066 106.715 181.13ZM493.602 191.27H488.322C478.694 158.837 469.013 126.387 459.28 93.9186H423.453L461.392 221.343C465.616 235.528 466.276 237.71 475.596 237.71L455.927 288.515H495.186L570.483 93.9452H531.277C518.745 126.378 506.187 158.82 493.602 191.27Z" fill="#006BB6"/>
<path d="M781.087 237.604H795.001C800.194 237.647 805.343 236.642 810.144 234.645C814.944 232.649 819.299 229.704 822.952 225.982C826.604 222.261 829.48 217.839 831.408 212.979C833.337 208.118 834.279 202.918 834.181 197.684V134.499H800.017V198.349C800.114 199.07 800.063 199.803 799.868 200.504C799.673 201.204 799.337 201.857 798.882 202.421C798.374 202.943 797.765 203.355 797.093 203.63C796.421 203.904 795.7 204.037 794.974 204.018H767.2C766.471 204.032 765.747 203.898 765.072 203.624C764.396 203.35 763.781 202.94 763.266 202.421C762.811 201.857 762.475 201.204 762.28 200.504C762.085 199.803 762.034 199.07 762.131 198.349V93.9452H727.994V197.737C727.895 202.973 728.838 208.176 730.769 213.038C732.699 217.901 735.577 222.323 739.232 226.045C742.887 229.767 747.245 232.712 752.049 234.706C756.853 236.701 762.005 237.704 767.2 237.657L781.087 237.604ZM660.301 161.836L720.364 237.737H673.132L620.83 165.881V237.737H578.245V43.2734H620.91V146.533L668.432 93.9452H719.202L660.301 161.836Z" fill="#35BAEC"/>
</svg>
