<svg width="116" height="24" viewBox="0 0 116 24" fill="none" xmlns="http://www.w3.org/2000/svg">
<g clip-path="url(#clip0_6498_8083)">
<path fill-rule="evenodd" clip-rule="evenodd" d="M0.00195312 0.384429C0.00195312 0.430804 2.01422 5.76217 4.47365 12.2319L8.94534 23.9952H11.117C12.7977 23.9952 13.3011 23.962 13.3436 23.8485C13.3826 23.7441 18.6784 10.009 20.5414 5.18028C20.5848 5.0679 26.46 5.03924 49.4047 5.03924H78.2134V2.66952V0.299805L47.2925 0.328238L16.3716 0.356672L13.7737 7.50645L11.1757 14.6562L11.0001 14.22C10.9034 13.9801 9.73956 10.7501 8.41381 7.04203L6.00323 0.300256H3.00259C1.35223 0.300256 0.00195312 0.338168 0.00195312 0.384429ZM21.3424 7.52157V9.21407H23.4324H25.5224V7.52157V5.82908H23.4324H21.3424V7.52157ZM39.9327 7.52157V9.21407H42.0777H44.2228V7.52157V5.82908H42.0777H39.9327V7.52157ZM45.1028 14.9121V23.9952H47.1928H49.2829V14.9121V5.82908H47.1928H45.1028V14.9121ZM55.773 9.49604C53.5639 9.95301 51.9489 11.2091 50.945 13.2507C50.4155 14.3279 50.237 15.1835 50.2455 16.6046C50.2593 18.8828 50.8419 20.4103 52.2492 21.8571C53.6394 23.2864 55.1861 23.8959 57.423 23.8959C59.8389 23.8959 61.7482 23.0528 63.0654 21.4042C65.0267 18.9495 65.1946 15.0913 63.456 12.4252C62.7581 11.355 61.9899 10.6645 60.8881 10.1174C59.3911 9.37395 57.4834 9.14219 55.773 9.49604ZM33.1048 10.1581C32.3816 10.3582 31.6618 10.8244 31.1434 11.4284L30.6925 11.9539V11.1481V10.3424H28.5475H26.4025V17.1713V24L28.52 23.9695L30.6375 23.9388L30.6925 19.6511C30.7519 15.0216 30.7518 15.0221 31.3696 14.4458C31.8674 13.9814 32.3382 13.8128 32.9999 13.8619C33.7542 13.9178 34.2266 14.228 34.5707 14.8934C34.807 15.3504 34.815 15.4833 34.8531 19.6793L34.8925 23.9952H36.9777H39.0628L39.0284 18.7203C38.9974 13.9683 38.9741 13.3891 38.7947 12.8788C38.3546 11.6268 37.3425 10.6325 36.0986 10.2301C35.2946 9.96994 33.9059 9.93665 33.1048 10.1581ZM72.1633 10.178C71.4265 10.3889 70.9515 10.7013 70.2659 11.4262L69.7434 11.9785V11.1604L69.7433 10.3424H67.6532H65.5632V17.1688V23.9952H67.646H69.7289L69.7637 19.7922C69.8022 15.1441 69.8023 15.1437 70.5277 14.4395C71.3683 13.6235 72.606 13.6164 73.3406 14.4235C73.9048 15.0431 73.9234 15.2137 73.9234 19.7603V23.9952H76.0684L80.6274 24C78.6962 23.5063 78.2195 22.4874 78.2134 20.5438V19.3061C78.2134 16.4519 78.1659 14.2993 78.092 13.8055C77.8577 12.2388 77.07 11.1193 75.7239 10.4394C75.0884 10.1185 74.8874 10.075 73.8893 10.0419C73.1182 10.0164 72.5795 10.0588 72.1633 10.178ZM21.3424 17.1688V23.9952H23.4324H25.5224V17.1688V10.3424H23.4324H21.3424V17.1688ZM39.9327 17.1688V23.9952H42.0777H44.2228V17.1688V10.3424H42.0777H39.9327V17.1688ZM58.477 13.7158C59.5472 14.2144 60.2162 15.3267 60.2143 16.6046C60.2125 17.9478 59.5251 19.0874 58.4285 19.5655C57.4598 19.9878 56.1466 19.666 55.432 18.8312C54.0572 17.2251 54.5446 14.5903 56.378 13.7164C56.9507 13.4435 57.8918 13.4432 58.477 13.7158Z" fill="#4765E6"/>
<path fill-rule="evenodd" clip-rule="evenodd" d="M84.8692 0C83.6265 0 82.6191 1.00736 82.6191 2.25001V21.734C82.6191 22.9766 83.6265 23.984 84.8692 23.984H113.252C114.494 23.984 115.502 22.9766 115.502 21.734V2.25002C115.502 1.00737 114.494 0 113.252 0H84.8692ZM105.88 8.00665V18.9877H109.516V8.00665H113.508V4.99704H101.909V8.00665H105.88ZM84.6113 18.9877V4.99711H88.2477V18.9877H84.6113ZM95.5834 18.9877C93.9951 18.9877 92.8526 18.8386 92.156 18.5404C91.4593 18.2285 91.0135 17.7269 90.8184 17.0355C90.6373 16.3306 90.5467 15.1986 90.5467 13.6396C90.5467 12.067 90.6373 10.935 90.8184 10.2436C91.0135 9.55219 91.4593 9.05737 92.156 8.75912C92.8526 8.44731 93.9951 8.29141 95.5834 8.29141C97.1717 8.29141 98.3142 8.44731 99.0108 8.75912C99.7075 9.05737 100.146 9.55219 100.327 10.2436C100.523 10.935 100.62 12.067 100.62 13.6396C100.62 15.1986 100.523 16.3306 100.327 17.0355C100.146 17.7269 99.7075 18.2285 99.0108 18.5404C98.3142 18.8386 97.1717 18.9877 95.5834 18.9877ZM95.5834 16.4458C96.1686 16.4458 96.5656 16.3916 96.7746 16.2831C96.9976 16.1611 97.1299 15.9307 97.1717 15.5917C97.2274 15.2528 97.2553 14.6021 97.2553 13.6396C97.2553 12.6635 97.2274 12.006 97.1717 11.6671C97.1299 11.3281 96.9976 11.1044 96.7746 10.996C96.5656 10.8875 96.1686 10.8333 95.5834 10.8333C94.9982 10.8333 94.5942 10.8875 94.3713 10.996C94.1623 11.1044 94.0299 11.3281 93.9742 11.6671C93.9324 12.006 93.9115 12.6635 93.9115 13.6396C93.9115 14.6021 93.9324 15.2528 93.9742 15.5917C94.0299 15.9307 94.1623 16.1611 94.3713 16.2831C94.5942 16.3916 94.9982 16.4458 95.5834 16.4458Z" fill="#4765E6"/>
</g>
<defs>
<clipPath id="clip0_6498_8083">
<rect width="115.501" height="24" fill="white"/>
</clipPath>
</defs>
</svg>
